<svg width="25" height="24" viewBox="0 0 25 24" fill="none" xmlns="http://www.w3.org/2000/svg">
<g clip-path="url(#clip0_4_4540)">
<path d="M10.9005 19.76C9.08714 19.76 7.42047 19.32 5.90047 18.44C4.38047 17.56 3.18047 16.36 2.30047 14.84C1.42047 13.32 0.980469 11.6667 0.980469 9.88C0.980469 8.09333 1.42047 6.44 2.30047 4.92C3.18047 3.4 4.38047 2.2 5.90047 1.32C7.42047 0.440001 9.0738 0 10.8605 0C12.6471 0 14.3005 0.440001 15.8205 1.32C17.3405 2.2 18.5405 3.4 19.4205 4.92C20.3005 6.44 20.7405 8.09333 20.7405 9.88C20.7405 11.6667 20.3005 13.32 19.4205 14.84C18.5405 16.36 17.3405 17.56 15.8205 18.44C14.3005 19.32 12.6605 19.76 10.9005 19.76ZM10.9005 1.84C9.46047 1.84 8.12714 2.2 6.90047 2.92C5.6738 3.64 4.70047 4.61333 3.98047 5.84C3.26047 7.06667 2.90047 8.41333 2.90047 9.88C2.90047 11.3467 3.26047 12.6933 3.98047 13.92C4.70047 15.1467 5.6738 16.12 6.90047 16.84C8.12714 17.56 9.46047 17.92 10.9005 17.92C12.3405 17.92 13.6738 17.56 14.9005 16.84C16.1271 16.12 17.1005 15.1467 17.8205 13.92C18.5405 12.6933 18.9005 11.3467 18.9005 9.88C18.9005 8.41333 18.5405 7.06667 17.8205 5.84C17.1005 4.61333 16.1271 3.64 14.9005 2.92C13.6738 2.2 12.3405 1.84 10.9005 1.84ZM24.6605 23.76C24.8738 23.5467 24.9805 23.3067 24.9805 23.04C24.9805 22.7733 24.8738 22.56 24.6605 22.4L20.5005 18.24C20.3405 18.0267 20.1271 17.92 19.8605 17.92C19.5938 17.92 19.3671 18.0133 19.1805 18.2C18.9938 18.3867 18.9005 18.6133 18.9005 18.88C18.9005 19.1467 18.9805 19.36 19.1405 19.52L23.3805 23.76C23.5405 23.92 23.7538 24 24.0205 24C24.2871 24 24.5005 23.92 24.6605 23.76Z" fill="#6D757F"/>
</g>
<defs>
<clipPath id="clip0_4_4540">
<rect width="24" height="24" fill="white" transform="matrix(1 0 0 -1 0.980469 24)"/>
</clipPath>
</defs>
</svg>
